- 
http://www.Speed.Cd 
       
http://www.Speed.Cd       the fast  and The Hottest Private Tracker on the net

(((--Registration will be open on june every weekend--)))

Please Seed back to make the speed Faster!!!

------------------nfo--------------------------
-[img]http://img862.imageshack.us/img862/6051/21717front.jpg[/img]


[color=blue][size=5][b]Rango.2011.EXTENDED.BDRip.XVID.AC3.HQ.Hive-CM8[/b][/size][/color]


[b]Thx Hive


CM8 Doing It Right The First Time :D


Source: Bluray

Video got very nice, no pixelation even in fast action scenes, check samples

Video: 720x304 @bitrate 2000 2pass
Audio: English DTS to AC3 5.1 @384
Sample: yes included 2, quality and action
Subs: yes english in srt /subs[/b]


[url]http://www.imdb.com/title/tt1192628/[/url]


General
Complete name                    : Rango.2011.EXTENDED.BDRip.XVID.AC3.HQ.Hive-CM8.avi
Format                           : AVI
Format/Info                      : Audio Video Interleave
File size                        : 1.87 GiB
Duration                         : 1h 51mn
Overall bit rate                 : 2 394 Kbps
Writing application              : Nandub v1.0rc2
Writing library                  : Nandub build 1853/release

Video
ID                               : 0
Format                           : MPEG-4 Visual
Format profile                   : Advanced Simple@L5
Format settings, BVOP            : 1
Format settings, QPel            : Yes
Format settings, GMC             : No warppoints
Format settings, Matrix          : Default (H.263)
Muxing mode                      : Packed bitstream
Codec ID                         : XVID
Codec ID/Hint                    : XviD
Duration                         : 1h 51mn
Bit rate                         : 2 000 Kbps
Width                            : 720 pixels
Height                           : 304 pixels
Display aspect ratio             : 2.40:1
Frame rate                       : 23.976 fps
Color space                      : YUV
Chroma subsampling               : 4:2:0
Bit depth                        : 8 bits
Scan type                        : Progressive
Compression mode                 : Lossy
Bits/(Pixel*Frame)               : 0.381
Stream size                      : 1.56 GiB (84%)
Writing library                  : XviD 1.2.1 (UTC 2008-12-04)

Audio
ID                               : 1
Format                           : AC-3
Format/Info                      : Audio Coding 3
Mode extension                   : CM (complete main)
Codec ID                         : 2000
Duration                         : 1h 51mn
Bit rate mode                    : Constant
Bit rate                         : 384 Kbps
Channel(s)                       : 6 channels
Channel positions                : Front: L C R, Side: L R, LFE
Sampling rate                    : 48.0 KHz
Bit depth                        : 16 bits
Compression mode                 : Lossy
Stream size                      : 307 MiB (16%)
Alignment                        : Split accross interleaves
Interleave, duration             : 42 ms (1.00 video frame)
Interleave, preload duration     : 500 ms


Johnny Depp        ...   Rango / Lars (voice)
Isla Fisher        ...   Beans (voice)
Abigail Breslin    ...   Priscilla (voice)
Ned Beatty         ...   Mayor (voice)
Alfred Molina      ...   Roadkill (voice)
Bill Nighy         ...   Rattlesnake Jake (voice)
Harry Dean Stanton ...   Balthazar (voice)
Timothy Olyphant   ...   Spirit of the West (voice)
Ray Winstone       ...   Bad Bill (voice)


Rango is an ordinary chameleon who accidentally winds up in
the town of Dirt, a lawless outpost in the Wild West in
desperate need of a new sheriff.


[img]http://img824.imageshack.us/img824/600/rarrarararararararaa.png[/img]
[img]http://img220.imageshack.us/img220/7091/92860185.png[/img]
[img]http://img191.imageshack.us/img191/3233/rarab.png[/img]
[img]http://img807.imageshack.us/img807/7789/rarraa.png[/img]
[img]http://img20.imageshack.us/img20/8904/rarraraa.png[/img]
[img]http://img703.imageshack.us/img703/8191/rarrararaa.png[/img]
[img]http://img535.imageshack.us/img535/6978/rarrarararaa.png[/img]
[img]http://img862.imageshack.us/img862/7900/rarrararararaa.png[/img]
[img]http://img834.imageshack.us/img834/3553/rarrarararararaa.png[/img]
[img]http://img707.imageshack.us/img707/2018/rarrararararararaa.png[/img]
[img]http://img845.imageshack.us/img845/2456/rarrararararararararaa.png[/img]



Greetz

ViSiON,SANTi,MAGNET,THC,T0XiC,LKRG,IMAGiNE,WBZ,FLAWL3SS,NOVA
D2U,Vik,Rapeseed,SAFC,goldadvance,MEMORY100,KaN1vE,Unevano,
Pinnz,Wayne,Mr Hive and all P2P groups 
Great Work Guys :D

FYS

CM8@hushmail.com